# xmcd
#
# Track frame offsets:
#	150
#	13007
#	24352
#	36895
#	47960
#	59255
#	70687
#	82855
#	96330
#	109717
#	122315
#	136487
#	149895
#	161772
#	171712
#	181920
#
# Disc length: 2590 seconds
# Revision: 4
# Processed by: cddbd v1.5.2PL0 Copyright (c) Steve Scherf et al.
# Submitted via: dBpowerAMP V12.0
#
DISCID=df0a1c10
DTITLE=Hank Snow - RCA Country Legends
DYEAR=2001
DGENRE=Country
TTITLE0=I'm Moving On
TTITLE1=(Now and Then, There's) A Fool Such as I
TTITLE2=The Golden Rocket
TTITLE3=Let Me Go, Lover
TTITLE4=Mississippi River Blues
TTITLE5=My Nova Scotia Home
TTITLE6=Miler's Cave
TTITLE7=A Good Gal Is Hard to Find
TTITLE8=I Don't Hurt Anymore
TTITLE9=I've Been Everywhere
TTITLE10=I Almost Lost My Mind
TTITLE11=Confused with the Blues
TTITLE12=Ninety Miles an Hour (Down a Dead End Street)
TTITLE13=Southern Cannonball
TTITLE14=Big Wheels
TTITLE15=Hello Love
EXTD=
EXTT0=
EXTT1=
EXTT2=
EXTT3=
EXTT4=
EXTT5=
EXTT6=
EXTT7=
EXTT8=
EXTT9=
EXTT10=
EXTT11=
EXTT12=
EXTT13=
EXTT14=
EXTT15=
PLAYORDER=
